# xmcd CD database file
#
# Track frame offsets:
#	150
#	19732
#	33952
#	51505
#	63697
#	77117
#	95717
#	111332
#	132402
#	152107
#	171140
#
# Disc length: 2547 seconds
#
# Revision: 5
# Processed by: cddbd v1.5.1PL2 Copyright (c) Steve Scherf et al.
# Submitted via: CDex 1.51
#
DISCID=9909f10b
DTITLE=Deborah Allen - Delta Dreamland
DYEAR=1995
DGENRE=Country
TTITLE0=Delta Dreamland
TTITLE1=Long Time Lovin' You
TTITLE2=All The Loving And The Hurting Too
TTITLE3=Emotional Moon
TTITLE4=Two Shades Of Blue
TTITLE5=Rock Me (In The Cradle Of Love)
TTITLE6=Chain Lightning
TTITLE7=If You're Not Gonna Love Me
TTITLE8=Undeniable
TTITLE9=Into My Life
TTITLE10=Rock Me (Dance Mix)
EXTD=GIANT Records\n\n\n\n\n\n\n\n\n\nGLR YEAR: 1995
EXTT0=
EXTT1=
EXTT2=
EXTT3=
EXTT4=
EXTT5=
EXTT6=
EXTT7=
EXTT8=
EXTT9=
EXTT10=
PLAYORDER=
